<svg xmlns="http://www.w3.org/2000/svg" viewBox="0 0 319.37 330.07"><defs><style>.cls-1{fill:#fff;}</style></defs><g id="Layer_2" data-name="Layer 2"><g id="Layer_1-2" data-name="Layer 1"><path class="cls-1" d="M195.1,142.06c-11.26,11.72-10.25,18.48-22.13,23a87.17,87.17,0,0,1-11.33,3.43c-2.75-8.5-9.68-16.94-17-16.94-5.07,0-10.94,2.64-17.69,5.62a153.2,153.2,0,0,0-17.51,9l3.1,4.17c2.36-1.3,9.18-4.68,16-7.61,5.92-2.53,11.27-4.62,14.86-4.62,5.81,0,9.58,6.6,11.67,11.89-7.61,1.8-20.11,2.24-23.88,2.24-1.75,0-2.38.29-3,.8a5,5,0,0,0-1.3,2.64l-.45,1.92h4c21.06,0,40.95-3.32,53.74-11.1a19,19,0,0,0,5.4.84c7.32,0,14.88-4,19.6-7.65a4.38,4.38,0,0,0,2.09-3.77,16.4,16.4,0,0,0-.12-1.76L211,152c-6.76,5.35-12.39,9.35-19.37,9.35a9.9,9.9,0,0,1-2.87-.33c6.81-10.93,12.9-20.62,27.83-28.5-1.58-1-3.84-2.43-5-3.22C205.75,131.86,200,136.93,195.1,142.06Z"/><path class="cls-1" d="M171.84,145.32c-4.79,0-4.34-8.17-4.68-14.64-16.89,1.63-27.48,6.65-39.09,12.89l1.35,5.18c10.53-6.3,20.67-9.91,31.43-11,.12,6.18,2.76,14.47,9.8,14.47,7.55,0,16.72-11.83,27.49-25.69L201,122.9c-1.47-1.13-3.09-2.15-4.11-3.1C185.81,134,176.24,145.32,171.84,145.32Z"/><path class="cls-1" d="M142.34,57.34a35.2,35.2,0,0,1-7.22,1.06,24.31,24.31,0,0,1-5.52-.72,22.92,22.92,0,0,0-5.84-.74,18.42,18.42,0,0,0-12.52,4.84c-6,5.69-6.3,11.82-6.7,17.28-.5,7.28-1.86,9.08-5.79,14.37-3.21,4.33-7.62,10-11,16.06,1.08.49,4.62,2.41,5.86,3.09,3.88-5.85,9.29-13.06,12.83-18.53,3.22-5,4.51-7.1,4.73-13.74.06-1.13.06-2.2.17-3.27a15,15,0,0,1,4.46-10.14,13.26,13.26,0,0,1,9.41-3.67c3.37,0,5.35,1,8.27,1a13.26,13.26,0,0,0,4.95-1l1.08-.39L136.93,69,143,71.46c-3.88,2.41-12.39,12.83-12.39,25.17a48.21,48.21,0,0,0,1.64,12.22.92.92,0,0,0,.94.79,1,1,0,0,0,1-1l.06-1.3c.18-3.77.45-9.74,2-15.09,2.53-9,9.35-17.46,16.17-21.52l-9.69-4.22,4.17-10.2Z"/><path class="cls-1" d="M171.61,16.29c-3.66,0-4.67,3.54-4.67,5.51,0,1.58.56,3.45,2.54,3.45,1.62,0,3.65-1.18,5.23-2.49s2.53-2.24,2.53-3.26-.9-1.86-2.25-2.48A7.82,7.82,0,0,0,171.61,16.29Z"/><polygon class="cls-1" points="149.2 87.81 146.5 93 175.28 93 173.14 87.81 149.2 87.81"/><path class="cls-1" d="M115.91,40.05c1.52-.9,2.82-2.19,2.82-3.55a2.38,2.38,0,0,0-.9-1.8,5.7,5.7,0,0,0-3.77-1.52c-2.83,0-4.29,2.64-4.29,5.07,0,1.85.91,2.92,2.65,2.92A7.38,7.38,0,0,0,115.91,40.05Z"/><path class="cls-1" d="M283.31,143.41l2.76,1.92a1.78,1.78,0,0,0,1,.45,1,1,0,0,0,1-1,1.1,1.1,0,0,0-.45-.85c-8.23-7.49-17.07-16.61-25.35-25.4-6.48-6.93-13.12-14.24-19-21.63a1.48,1.48,0,0,0-1.19-.74.93.93,0,0,0-1,1c0,.79.56,1.74,2,4.11a117.06,117.06,0,0,0,16.11,21.46A161,161,0,0,0,283.31,143.41Z"/><path class="cls-1" d="M247.89,245.19h-6.71a4.58,4.58,0,0,0-3.77,1.63,5.16,5.16,0,0,0-1.13,3.38v73.73a5.18,5.18,0,0,0,1.13,3.38,4.59,4.59,0,0,0,3.77,1.64h6.71a4.57,4.57,0,0,0,3.77-1.64,5.16,5.16,0,0,0,1.13-3.38V250.2a5.18,5.18,0,0,0-1.13-3.38A4.57,4.57,0,0,0,247.89,245.19Z"/><path class="cls-1" d="M131.46,71.2a2.38,2.38,0,0,0-1.18-2,5.55,5.55,0,0,0-3.2-1,3.64,3.64,0,0,0-3.78,2.88A6.15,6.15,0,0,0,123,73c0,2,.89,3.44,2.36,3.44C127.41,76.44,131.46,73.62,131.46,71.2Z"/><path class="cls-1" d="M53.56,140.37l.4,2.41a2.77,2.77,0,0,0,1.4,2.26c1,.51,2.49.57,5,.57a57.9,57.9,0,0,0,13.8-1.47c6.93,10.3,16.45,14.25,25.63,14.25,7.83,0,15.76-2.87,23.37-7l-1.42-5.13c-7.42,4.18-15.14,6.93-22,6.93-7.61,0-14.37-3.27-20-11.77-2.37-3.59-4.22-8.11-6.49-12.11-2.7-4.73-5.62-7.26-10.74-7.26-4.68,0-9.24,1.92-14.08,4l.22,1.07c.38,1.74,1.07,3,2.71,3a6.48,6.48,0,0,0,1.86-.45C56,128.76,58,128,60.72,128c4.22,0,6.25,2.47,9.12,8.56l1.08,2.25c-2.94,1-9.8,1.52-14.92,1.52Z"/><path class="cls-1" d="M288.94,266.42c-19.55,0-30.53,15.27-30.53,31.37,0,17.19,11.77,32.28,30.63,32.28,9.42,0,18.65-3.55,23.95-9.8,2.31-2.71,4.17-6.48,4.17-8.79a2.82,2.82,0,0,0-.62-2,2.67,2.67,0,0,0-2.3-.91h-9.06a4.35,4.35,0,0,0-3.95,2c-2.65,3.89-6.47,5.92-12.11,5.92a14.06,14.06,0,0,1-14.31-13.47h39.32a5.14,5.14,0,0,0,3.83-1.24c1-.89,1.41-2.19,1.41-4.61a32.93,32.93,0,0,0-7.16-20.89C307.24,270.42,299.59,266.42,288.94,266.42Zm-14,24.67c.74-6.93,6-12.11,14.08-12.11,7.89,0,13.35,5.18,14.09,12.11Z"/><path class="cls-1" d="M265.91,29.75h.91c0,.39-.06.84-.06,1.23,0,6.37,3.27,11.1,11.32,11.1,4.95,0,12.74-2.48,20.05-5,6.08-2.09,11.66-4.22,14.42-5V25.35c-3.15.95-9.57,3.43-16.21,5.73-7,2.43-13.86,4.63-17.87,4.63-4.39,0-5.62-2.42-5.62-5.86,0-7.1,4.45-17.29,7.26-23.09h-6.82c-3.54,6.87-17.51,28.89-25.05,38l4.33,4.68C256.61,45,261.06,37.29,265.91,29.75Z"/><path class="cls-1" d="M218.19,29.64c-5.68-5.47-10-11.67-12.78-14.65-6.15-6.71-14.08-15-27.14-15-12.62,0-21,8.22-23.66,15.33-.8,2-1.41,4.5-2,5.41-1.23,2-6.81,11.54-9.12,15.31h10.42l-5.07,9.58c5.91-1.3,10.13-2.26,15.77-2.26,5,0,8.62,1.18,10.2,4.34,2.93,5.86,2.93,23.59,7.88,36.95,4.61,12.56,15.88,24.85,28.56,34.24l.56.18a1,1,0,0,0,1-.91,1.13,1.13,0,0,0-.38-.85c-10.6-10.59-19.21-22.3-23.82-35.15-4.56-12.5-3.84-30.07-7.84-37.9-2.64-5.18-8.27-6.54-13.46-6.54A47.1,47.1,0,0,0,157.47,39L162,31.24h-7.72c1.63-2.87,3.33-5.52,4.17-7.09.73-1.36,1-3,1.92-5.35A18.54,18.54,0,0,1,178.27,6.74c10.59,0,16.78,6.81,22.93,13.64C204,23.52,208.64,30.12,214,35c3.66,3.38,10.64,7.14,21.4,18.25a193.09,193.09,0,0,1,21,25.91c27.2,39.83,45.06,74.91,55,102.28l-.17.11C282.68,162.19,258,143.89,238,121.31,223.88,105.25,211.61,86.67,200.9,63c-.73-1.57-1.36-3-2-4.56-.27-.61-.55-.78-1-.78a.92.92,0,0,0-1,.94,32.25,32.25,0,0,0,.9,4.67c5.69,24.56,21.46,46.58,38.3,64.9s35.78,33.85,51.37,45.22l12.18,34.81a8.7,8.7,0,0,1,.61,2.6,1.85,1.85,0,0,1-.55,1.47,2.38,2.38,0,0,1-1.81.5h-3.66c-1.58,0-2.2-.22-2.75-.67a4.07,4.07,0,0,1-1.24-1.92c-1.07-3.26-7.51-21.57-8.73-25.29a1.09,1.09,0,0,0-1.07-.89.94.94,0,0,0-.95,1,25,25,0,0,0,.45,2.54c1.63,8.33,3.54,17.69,4.33,21.23A24.59,24.59,0,0,1,285,213a2.94,2.94,0,0,1-1.07,2.42l-3.78,3.83c-.9.91-1.4,1.13-2.14,1.13-.9,0-1.63-.61-2-2.19-4.28-20-10.76-44.79-12.44-51.66-.4-1.52-.68-2.37-1.58-2.37s-1.08.57-1.08,1.25a11.07,11.07,0,0,0,.18,1.57c1,7.1,5.12,33,9.57,56.56.79,4.06,2.31,6.31,5.81,6.31a6.35,6.35,0,0,0,4.5-2c2.3-2.3,3-2.92,5.75-5.63a8,8,0,0,1,6.69-2.7h8.34a5.17,5.17,0,0,0,4-1.41,4.81,4.81,0,0,0,1.46-3.71,14,14,0,0,0-1.07-4.9c-2.13-5.74-9-25.16-11-30.63l.16-.11c7,5.35,17.29,12.16,21.8,12.16,1.4,0,2.25-.62,2.25-2.81,0-10.37-17.24-53-56.61-111.69C241.8,45.12,223.38,34.59,218.19,29.64Z"/><path class="cls-1" d="M267.65,68.72c7.1-2.93,13.46-4.84,19.2-4.84,8,0,14.64,0,25.68-2.59V56.11c-6.2,1.13-12.78,2.47-17.06,2.47-2.54,0-3.28-.33-3.28-1.17,0-.5.34-.85,1.3-1.24,6.76-2.87,18.87-7.72,25.86-10.26V39.05c-14,5.18-38.64,15.36-55.43,24.49C264.38,64.09,267.32,68.21,267.65,68.72Z"/><path class="cls-1" d="M75.19,67.81c-7.93,9.4-12.11,17-19,33.91a44.79,44.79,0,0,1,4.57-.23c.91,0,1.64,0,2.81.06l.84-1.8c3.89-8.35,9.13-19.6,16.46-28.27l2.53-3c7.56-8.85,12.23-14.09,15.16-26.13,1-4.28,1.86-8.11,4.73-10.87a13.07,13.07,0,0,1,9.18-3.55,18.79,18.79,0,0,1,7.94,2,13.47,13.47,0,0,0,6.71,1.4c1,0,1.73-.06,2.41-.11l-3.94,5.3,5.35,3.77c-6.71,2-10.26,8.46-11.44,11.44a4.27,4.27,0,0,0-.34,1.41.82.82,0,0,0,.9.89c.74,0,1.3-.55,2.26-1.68,3.27-3.95,5.87-6.65,17.91-10.42l-8.51-6.43,6.42-9.4h-6c-3.82,0-6.36-.06-9.69-1.57-4.51-2.09-6.82-3-10.82-3a18.82,18.82,0,0,0-13,5.12c-4.22,3.89-5.53,9.08-7,14.76-1.17,4.4-2.59,9.24-5.73,13.69C83.13,58.86,81.23,60.72,75.19,67.81Z"/><path class="cls-1" d="M26.41,46.69c-13.8,0-19.65,6.65-19.65,11.1A11.62,11.62,0,0,0,0,68.26c0,8.4,6.14,14.37,14.25,14.37a12.69,12.69,0,0,0,7.38-2.53,15.63,15.63,0,0,0,5.06.78A13.13,13.13,0,0,0,38,75.08a9.43,9.43,0,0,0,1.3.06c4.95,0,9.24-3.27,11.48-7.55a5.76,5.76,0,0,0,.79-2.53c0-.62-.28-1.13-.9-1.13-.79,0-.91.74-2.31,2-3.16,2.87-8,4-13,4C33,73.45,30,75.32,26.53,75.32a11.11,11.11,0,0,1-6.53-2,7.44,7.44,0,0,1-5.63,2.54,7.28,7.28,0,0,1-7.6-7.62,7.61,7.61,0,0,1,4.84-7c.49-5.58,6.46-9.35,13.91-9.35a24.82,24.82,0,0,1,2.93.17c1.13-1.8,3.83-3.71,7.66-4.22A6.8,6.8,0,0,0,38,47.38,1.36,1.36,0,0,0,38,45.07a7.21,7.21,0,0,0-1.86-.5,13,13,0,0,1-9.92-8.22A14.59,14.59,0,0,1,11.51,21.87v-.52a7.48,7.48,0,0,1-4.73-7,7.51,7.51,0,0,1,7.54-7.6,7.71,7.71,0,0,1,6.15,3.09,14,14,0,0,1,3.82-.45c6.3,0,13.07,4,14.36,11.77,8.11.74,10,7.61,10.54,10.48.27,1.47.5,2.71,1.47,2.71s1.24-1.13,1.58-2.65a11.67,11.67,0,0,1,3.83-7C56.07,17.31,61.59,11,69.42,11a7.59,7.59,0,0,1,14.47,3.21,7.44,7.44,0,0,1-3,6.08,15.33,15.33,0,0,1,.67,4c0,4.74-2.82,8.05-8,9.8a14.46,14.46,0,0,1-3.94,7.38c-3.38,3.27-6.81,3.27-6.81,4.62,0,.73.49,1.19,1.91,1.19,6.26,0,12.39-3.5,13.12-9.3a14.45,14.45,0,0,0,9.58-12.84,7.16,7.16,0,0,0-.62-3.33,11.22,11.22,0,0,0,3.56-8.27A13.81,13.81,0,0,0,65.1,6C59,6,51,12.84,51,22.59h-.85c-.56-3.38-4.06-5.63-7-5.81C40.83,9.69,35.48,3.61,26.69,3.61a23.93,23.93,0,0,0-3.32.22A13.28,13.28,0,0,0,13.91,0,13.87,13.87,0,0,0,0,13.91C0,18.76,2.2,22.07,6.37,25l-.06.9c0,6.19,6.75,15.88,16.78,15.88,0,1.58,2,3.72,4.17,4.11v.79h-.85Z"/><path class="cls-1" d="M177.93,292.94l-12.78-3.27c-5.3-1.35-7.78-2.32-7.78-5.57s2.83-5.7,9.35-5.7c3.83,0,7.33.85,9.58,3.22,1.86,2,1.52,3,3,3.77a7.71,7.71,0,0,0,3.49.45h6.37a2.82,2.82,0,0,0,2.3-.79,3.71,3.71,0,0,0,.73-2.59c0-2.94-1.91-6.71-5.29-9.58-4.51-3.89-11.61-6.47-20.17-6.47-15.42,0-25.56,7.32-25.56,19a14.46,14.46,0,0,0,4,10.19c2.87,3.1,7,5.25,12.95,6.76l12.9,3.26c3.55.9,6.71,2,6.71,5.06,0,4.79-5.07,6.42-10.49,6.42a17.41,17.41,0,0,1-7.65-1.63,9.4,9.4,0,0,1-3.89-3.43c-.84-1.3-1.13-2.25-2.42-3a5.93,5.93,0,0,0-3-.51h-7a3.17,3.17,0,0,0-2.75,1.07,3.8,3.8,0,0,0-.68,2.42,13.28,13.28,0,0,0,2.65,7.61c4.28,5.73,13.23,10.36,24.66,10.36,11.27,0,26.86-4.68,26.86-19.77a15.85,15.85,0,0,0-3.2-9.92C188.12,296.94,184.35,294.59,177.93,292.94Z"/><path class="cls-1" d="M49.28,47.48A141.82,141.82,0,0,1,62,71.37a52.21,52.21,0,0,1,4.39-5.92C62.07,56.66,55,48.27,51.87,45Z"/><path class="cls-1" d="M188.46,111.75c-3.38,1.47-11.15,4.27-18.86,4.27a78.48,78.48,0,0,1-10.6-.79,101.45,101.45,0,0,0-12.1-1.06c-5.92,0-13.25.56-20.34,5.57l3.1,4.06c4.84-2.3,12.68-3.43,16.56-3.43a81.34,81.34,0,0,1,10.58.84,97.67,97.67,0,0,0,13,1.07c10.59,0,21-5.63,22.59-6.65A35.63,35.63,0,0,1,188.46,111.75Z"/><path class="cls-1" d="M119.74,119.47l-3.26-4.23c-12.62,4.85-26.64,12.68-26.64,20.68,0,4.56,3.38,8.16,11,8.16,11.16,0,23-5.63,32.57-10.87L132,131.36a2.74,2.74,0,0,0-2.54-1.47,5,5,0,0,0-2,.56c-8.17,4-17,8-25.24,8-4.74,0-5.92-1.45-5.92-3.5C96.31,129.21,112,122.56,119.74,119.47Z"/><path class="cls-1" d="M228.16,268.57H218V250.2a5.29,5.29,0,0,0-1.12-3.38,4.62,4.62,0,0,0-3.78-1.62h-6.36a4.59,4.59,0,0,0-3.77,1.62,5.23,5.23,0,0,0-1.13,3.38v18.37h-3.16a4.21,4.21,0,0,0-2.76.89,3.65,3.65,0,0,0-1.07,2.93v3.88a3.59,3.59,0,0,0,1.07,2.92,4.14,4.14,0,0,0,2.76.91h3.16v28.1c0,7.2,2,11.72,5.64,15.32,3.37,3.32,7.77,5.41,15.42,5.41h4.79a4.14,4.14,0,0,0,2.76-.91,3.67,3.67,0,0,0,1.17-2.93v-4.9a3.71,3.71,0,0,0-1.17-2.92,4.14,4.14,0,0,0-2.76-.91H227c-3,0-5.12-.79-6.54-2.14-1.69-1.58-2.54-4-2.54-7.16v-27h10.26a4.12,4.12,0,0,0,2.76-.91,3.65,3.65,0,0,0,1.06-2.92v-3.88a3.69,3.69,0,0,0-1.06-2.93A4.18,4.18,0,0,0,228.16,268.57Z"/><path class="cls-1" d="M313.79,257.8a4.11,4.11,0,0,0,2.75-.91,3.63,3.63,0,0,0,1.07-2.92v-5.24c0-2-.39-3.06-1.07-3.78a3.72,3.72,0,0,0-2.75-1.06,32.76,32.76,0,0,0-3.32.27l-45,4.45a3.22,3.22,0,0,0-2.36,1,3.16,3.16,0,0,0-.73,2.3v2.93A2.78,2.78,0,0,0,263,257a2.82,2.82,0,0,0,2.24.84h48.51Z"/><path class="cls-1" d="M58.52,203.55A25.61,25.61,0,0,1,46,206.78c-1.74,0-2.53.34-3.15,1a4.12,4.12,0,0,0-1,3.09v2H43.2c7.54,0,14.53-1.17,22.19-7.2l25-19.5c3.55,4.06,12.5,9.69,23.09,9.69,6,0,9.8-1.46,15.31-2.86a62.26,62.26,0,0,1,17.58-2h26.41c13.52,0,20.06-2.81,27.26-6.86,15.67-8.8,29-23.66,36.56-40.73-2-1.24-3.83-2.37-5.4-3.44-8.46,17.8-21.3,30.76-34.48,38.25-6.25,3.55-11.89,5.86-24,5.86h-26.3a75,75,0,0,0-19.93,2.41c-5,1.3-8.12,2.6-13.12,2.6-7.44,0-14.32-3.67-17.64-7.16l6.2-4.9-3.09-4.11c-1.81,1.3-23.83,17.57-28.45,21.23l-.27-.16a31.31,31.31,0,0,0,.11-3.15c0-12.39-5.75-15.38-14.48-18.87l-5.92,3.5c12,4,15,7.21,15,16.17C64.71,198.6,62.19,201.42,58.52,203.55Z"/><path class="cls-1" d="M2.26,194.94c4.22,0,4.72-2.53,4.72-5,0-1.62-.05-3.49-.05-5.51.05-4.67.22-8.85,7.77-12.23,3-1.35,18-7.43,29.07-12.16,3.27-1.41,6.3-2.59,9.69-2.59,3.77,0,8.11,1.63,13.51,4.85A56.84,56.84,0,0,1,80.1,172.93l4.78-3.66a62.65,62.65,0,0,0-15.49-12.56c-5.69-3.37-10.76-5.35-15-5.35a18.31,18.31,0,0,0-4.68.67,17.44,17.44,0,0,1-4.74.85c-2.07,0-3.83-.5-6.36-3.43-1-1.07-7-8-8.33-10a9.68,9.68,0,0,1-1.75-5.13,6.39,6.39,0,0,1,.73-3.09c5.24,4.06,11.72,6.54,19.61,7.49l-1.08-5.35c-11.32-3-23.38-12.95-23.38-19.37a8.39,8.39,0,0,1,.84-3.51c4.39,4.06,14.7,8.3,20.27,8.3a20.24,20.24,0,0,0,7.89-2A19.11,19.11,0,0,1,60.91,115c7.21,0,16.11,3.49,23.94,6.81a4.26,4.26,0,0,0,1.46.29,3,3,0,0,0,2.82-1.76l1-1.85c-8.61-5-22.37-10.37-29.53-10.37a20.07,20.07,0,0,0-7.88,1.74c-2.54,1-4.73,2.08-7.05,2.08-5.69,0-20.27-5.63-20.27-11.1,0-6.42,23.2-8.9,25.74-8.9l2.31-5.24c-16.84,0-36.9,5.91-36.9,13.74,0,2.26,1.3,3.38,1.3,5.46,0,2.83-1.3,4.74-1.3,7.89,0,2.08,1.25,4.73,2.71,7s3.44,4,3.44,6c0,1.52-1,3.31-1,6.86C21.7,141.34,26,146,34.49,155l1.68,1.8c-7,2.71-20,8.34-23,9.63C2.64,170.83,0,176.19,0,184.64c0,3.27,0,7,.22,10.3Z"/><path class="cls-1" d="M73.22,19.49a.94.94,0,0,0-.94-.9c-.52,0-.79.34-1.3.74a57.53,57.53,0,0,0-6.08,6,44,44,0,0,0-7.26,12.16l3,1.86c2.09-3.11,8.79-13.69,12.22-19A1.73,1.73,0,0,0,73.22,19.49Z"/><path class="cls-1" d="M190.54,256.9a3.66,3.66,0,0,0,1.07-2.92v-5a3.67,3.67,0,0,0-1.07-2.93,4.11,4.11,0,0,0-2.75-.89H59.36A5.41,5.41,0,0,0,54.91,247a5.55,5.55,0,0,0-1.23,3.88v51.15h-.29s-28-49.9-29.35-52.2a9.68,9.68,0,0,0-3.43-3.62A10.47,10.47,0,0,0,14.92,245H5.69a5.39,5.39,0,0,0-4.45,1.85A5.56,5.56,0,0,0,0,250.7v72.49a5.56,5.56,0,0,0,1.24,3.89,5.4,5.4,0,0,0,4.45,1.86h5.24a5.41,5.41,0,0,0,4.45-1.86,5.56,5.56,0,0,0,1.23-3.89V270.82h.29S46,322.3,47.15,324.22A9.44,9.44,0,0,0,55.49,329h9a5.39,5.39,0,0,0,4.44-1.86,5.51,5.51,0,0,0,1.24-3.89V257.81H187.8A4.21,4.21,0,0,0,190.54,256.9Z"/><path class="cls-1" d="M106.28,266.42c-19.55,0-30.53,15.27-30.53,31.37,0,17.19,11.77,32.28,30.63,32.28,9.41,0,18.64-3.55,23.94-9.8,2.32-2.71,4.18-6.48,4.18-8.79a2.82,2.82,0,0,0-.62-2,2.66,2.66,0,0,0-2.3-.91h-9.07a4.33,4.33,0,0,0-3.94,2c-2.65,3.89-6.49,5.92-12.12,5.92a14.06,14.06,0,0,1-14.3-13.47h39.21a5.08,5.08,0,0,0,3.82-1.24c1-.89,1.42-2.19,1.42-4.61a32.93,32.93,0,0,0-7.16-20.89C124.48,270.42,116.92,266.42,106.28,266.42Zm-14,24.67c.74-6.93,6-12.11,14.08-12.11s13.35,5.18,14.08,12.11Z"/><path class="cls-1" d="M20.11,65.06a.88.88,0,0,0,.9.9,4.38,4.38,0,0,0,1.46-.45l20.61-7-1-3.38c-8.39,1.41-14.48,3.55-21.4,9C20.27,64.44,20.11,64.67,20.11,65.06Z"/><path class="cls-1" d="M32.61,24.85a46.11,46.11,0,0,0-10.87-6.1L21,18.58a.84.84,0,0,0-.9.85c0,.34.11.62.62,1.07C25.64,24.66,35.1,32.61,38,35l2.35-2.71A51.41,51.41,0,0,0,32.61,24.85Z"/></g></g></svg>