<svg xmlns="http://www.w3.org/2000/svg" viewBox="0 0 319.38 330.16"><defs><style>.cls-1{fill:#63513d;}</style></defs><g id="Layer_2" data-name="Layer 2"><g id="Layer_1-2" data-name="Layer 1"><g id="Layer_2-2" data-name="Layer 2"><g id="Layer_1-2-2" data-name="Layer 1-2"><path class="cls-1" d="M195.11,142.15c-11.26,11.72-10.25,18.48-22.13,23a86,86,0,0,1-11.33,3.43c-2.75-8.5-9.68-16.94-17-16.94-5.07,0-10.94,2.64-17.69,5.62a153.83,153.83,0,0,0-17.51,9l3.1,4.17c2.36-1.3,9.18-4.68,16-7.61,5.92-2.53,11.27-4.62,14.86-4.62,5.81,0,9.58,6.6,11.67,11.89-7.61,1.8-20.11,2.24-23.88,2.24-1.75,0-2.38.29-3,.8a5,5,0,0,0-1.3,2.64l-.45,1.92h4c21.06,0,41-3.32,53.74-11.1a19,19,0,0,0,5.4.84c7.32,0,14.88-4,19.6-7.65a4.35,4.35,0,0,0,2.09-3.77,17.15,17.15,0,0,0-.12-1.76l-.15-2.16c-6.76,5.35-12.39,9.35-19.37,9.35a9.93,9.93,0,0,1-2.87-.33c6.81-10.93,12.9-20.62,27.83-28.5-1.58-1-3.84-2.43-5-3.22C205.76,132,200,137,195.11,142.15Z"/><path class="cls-1" d="M171.85,145.41c-4.79,0-4.34-8.17-4.68-14.64-16.89,1.63-27.48,6.65-39.09,12.89l1.35,5.18c10.53-6.3,20.67-9.91,31.43-11,.12,6.18,2.76,14.47,9.8,14.47,7.55,0,16.72-11.83,27.49-25.69L201,123c-1.47-1.13-3.09-2.15-4.11-3.1C185.82,134.09,176.25,145.41,171.85,145.41Z"/><path class="cls-1" d="M142.35,57.43a35.15,35.15,0,0,1-7.22,1.06,24.5,24.5,0,0,1-5.52-.72,23,23,0,0,0-5.84-.74,18.43,18.43,0,0,0-12.52,4.84c-6,5.69-6.3,11.82-6.7,17.28-.5,7.28-1.86,9.08-5.79,14.37-3.21,4.33-7.62,10-11,16.06,1.08.49,4.62,2.41,5.86,3.09,3.88-5.85,9.29-13.06,12.83-18.53,3.22-5,4.51-7.1,4.73-13.74.06-1.13.06-2.2.17-3.27A15.05,15.05,0,0,1,115.81,67a13.23,13.23,0,0,1,9.41-3.67c3.37,0,5.35,1,8.27,1a13.14,13.14,0,0,0,4.95-1l1.08-.39-2.58,6.16L143,71.55c-3.88,2.41-12.39,12.83-12.39,25.17a48.48,48.48,0,0,0,1.64,12.22.91.91,0,0,0,.94.79,1,1,0,0,0,1-1l.06-1.3c.18-3.77.45-9.74,2-15.09,2.53-9,9.35-17.46,16.17-21.52l-9.69-4.22,4.17-10.2Z"/><path class="cls-1" d="M171.62,16.38c-3.66,0-4.67,3.54-4.67,5.51,0,1.58.56,3.45,2.54,3.45,1.62,0,3.65-1.18,5.23-2.49s2.53-2.24,2.53-3.26-.9-1.86-2.25-2.48A7.88,7.88,0,0,0,171.62,16.38Z"/><polygon class="cls-1" points="149.21 87.9 146.51 93.09 175.29 93.09 173.15 87.9 149.21 87.9"/><path class="cls-1" d="M115.92,40.14c1.52-.9,2.82-2.19,2.82-3.55a2.4,2.4,0,0,0-.9-1.8,5.72,5.72,0,0,0-3.77-1.52c-2.83,0-4.29,2.64-4.29,5.07,0,1.85.91,2.92,2.65,2.92A7.34,7.34,0,0,0,115.92,40.14Z"/><path class="cls-1" d="M283.32,143.5l2.76,1.92a1.8,1.8,0,0,0,1,.45,1,1,0,0,0,1-1,1.07,1.07,0,0,0-.45-.85c-8.23-7.49-17.07-16.61-25.35-25.4-6.48-6.93-13.12-14.24-19-21.63a1.46,1.46,0,0,0-1.19-.74.93.93,0,0,0-1,.86v.14c0,.79.56,1.74,2,4.11a117.13,117.13,0,0,0,16.11,21.46A161.21,161.21,0,0,0,283.32,143.5Z"/><path class="cls-1" d="M247.9,245.28h-6.71a4.59,4.59,0,0,0-3.77,1.63,5.25,5.25,0,0,0-1.13,3.38V324a5.23,5.23,0,0,0,1.13,3.38,4.59,4.59,0,0,0,3.77,1.64h6.71a4.57,4.57,0,0,0,3.77-1.64A5.12,5.12,0,0,0,252.8,324V250.29a5.14,5.14,0,0,0-1.13-3.38A4.57,4.57,0,0,0,247.9,245.28Z"/><path class="cls-1" d="M131.47,71.29a2.37,2.37,0,0,0-1.18-2,5.61,5.61,0,0,0-3.2-1,3.65,3.65,0,0,0-3.78,2.88,6.26,6.26,0,0,0-.3,1.92c0,2,.89,3.44,2.36,3.44C127.42,76.53,131.47,73.71,131.47,71.29Z"/><path class="cls-1" d="M53.57,140.46l.4,2.41a2.77,2.77,0,0,0,1.4,2.26c1,.51,2.49.57,5,.57a57.71,57.71,0,0,0,13.8-1.47c6.93,10.3,16.45,14.25,25.63,14.25,7.83,0,15.76-2.87,23.37-7l-1.42-5.13c-7.42,4.18-15.14,6.93-22,6.93-7.61,0-14.37-3.27-20-11.77-2.37-3.59-4.22-8.11-6.49-12.11-2.7-4.73-5.62-7.26-10.74-7.26-4.68,0-9.24,1.92-14.08,4l.22,1.07c.38,1.74,1.07,3,2.71,3a6.57,6.57,0,0,0,1.86-.45c2.78-.91,4.78-1.67,7.5-1.67,4.22,0,6.25,2.47,9.12,8.56l1.08,2.25c-2.94,1-9.8,1.52-14.92,1.52Z"/><path class="cls-1" d="M289,266.51c-19.55,0-30.53,15.27-30.53,31.37,0,17.19,11.77,32.28,30.63,32.28,9.42,0,18.65-3.55,23.95-9.8,2.31-2.71,4.17-6.48,4.17-8.79a2.79,2.79,0,0,0-.62-2,2.68,2.68,0,0,0-2.3-.91h-9.06a4.36,4.36,0,0,0-3.95,2c-2.65,3.89-6.47,5.92-12.11,5.92a14.07,14.07,0,0,1-14.31-13.47h39.32a5.1,5.1,0,0,0,3.83-1.24c1-.89,1.41-2.19,1.41-4.61a32.92,32.92,0,0,0-7.16-20.89C307.25,270.51,299.6,266.51,289,266.51Zm-14,24.67c.74-6.93,6-12.11,14.08-12.11,7.89,0,13.35,5.18,14.09,12.11Z"/><path class="cls-1" d="M265.92,29.84h.91c0,.39-.06.84-.06,1.23,0,6.37,3.27,11.1,11.32,11.1,5,0,12.74-2.48,20.05-5,6.08-2.09,11.66-4.22,14.42-5V25.44c-3.15.95-9.57,3.43-16.21,5.73-7,2.43-13.86,4.63-17.87,4.63-4.39,0-5.62-2.42-5.62-5.86,0-7.1,4.45-17.29,7.26-23.09H273.3c-3.54,6.87-17.51,28.89-25.05,38l4.33,4.68C256.62,45.09,261.07,37.38,265.92,29.84Z"/><path class="cls-1" d="M218.2,29.73c-5.68-5.47-10-11.67-12.78-14.65-6.15-6.71-14.08-15-27.14-15-12.62,0-21,8.22-23.66,15.33-.8,2-1.41,4.5-2,5.41-1.23,2-6.81,11.54-9.12,15.31h10.42l-5.07,9.58c5.91-1.3,10.13-2.26,15.77-2.26,5,0,8.62,1.18,10.2,4.34,2.93,5.86,2.93,23.59,7.88,36.95,4.61,12.56,15.88,24.85,28.56,34.24l.56.18a1,1,0,0,0,1-.91,1.12,1.12,0,0,0-.38-.85c-10.6-10.59-19.21-22.3-23.82-35.15-4.56-12.5-3.84-30.07-7.84-37.9-2.64-5.18-8.27-6.54-13.46-6.54a47.39,47.39,0,0,0-9.84,1.28L162,31.33h-7.72c1.63-2.87,3.33-5.52,4.17-7.09.73-1.36,1-3,1.92-5.35a18.54,18.54,0,0,1,17.9-12.06c10.59,0,16.78,6.81,22.93,13.64,2.8,3.14,7.44,9.74,12.8,14.62,3.66,3.38,10.64,7.14,21.4,18.25a192.75,192.75,0,0,1,21,25.91c27.2,39.83,45.06,74.91,55,102.28l-.17.11C282.69,162.28,258,144,238,121.4c-14.12-16.06-26.39-34.64-37.1-58.31-.73-1.57-1.36-3-2-4.56-.27-.61-.55-.78-1-.78a.92.92,0,0,0-1,.84.34.34,0,0,0,0,.1,33.48,33.48,0,0,0,.9,4.67c5.69,24.56,21.46,46.58,38.3,64.9s35.78,33.85,51.37,45.22l12.18,34.81a8.65,8.65,0,0,1,.61,2.6,1.8,1.8,0,0,1-.55,1.47,2.36,2.36,0,0,1-1.81.5h-3.66c-1.58,0-2.2-.22-2.75-.67a4,4,0,0,1-1.24-1.92c-1.07-3.26-7.51-21.57-8.73-25.29a1.08,1.08,0,0,0-1.07-.89.94.94,0,0,0-.95.93v.07c.11.85.26,1.7.45,2.54,1.63,8.33,3.54,17.69,4.33,21.23a23.38,23.38,0,0,1,.72,4.23,2.93,2.93,0,0,1-1.07,2.42l-3.78,3.83c-.9.91-1.4,1.13-2.14,1.13-.9,0-1.63-.61-2-2.19-4.28-20-10.76-44.79-12.44-51.66-.4-1.52-.68-2.37-1.58-2.37s-1.08.57-1.08,1.25a13.71,13.71,0,0,0,.18,1.57c1,7.1,5.12,33,9.57,56.56.79,4.06,2.31,6.31,5.81,6.31a6.31,6.31,0,0,0,4.5-2c2.3-2.3,3-2.92,5.75-5.63a8,8,0,0,1,6.69-2.7h8.34a5.18,5.18,0,0,0,4-1.41,4.79,4.79,0,0,0,1.46-3.71,14,14,0,0,0-1.07-4.9c-2.13-5.74-9-25.16-11-30.63l.16-.11c7,5.35,17.29,12.16,21.8,12.16,1.4,0,2.25-.62,2.25-2.81,0-10.37-17.24-53-56.61-111.69C241.81,45.21,223.39,34.68,218.2,29.73Z"/><path class="cls-1" d="M267.66,68.81c7.1-2.93,13.46-4.84,19.2-4.84,8,0,14.64,0,25.68-2.59V56.2c-6.2,1.13-12.78,2.47-17.06,2.47-2.54,0-3.28-.33-3.28-1.17,0-.5.34-.85,1.3-1.24,6.76-2.87,18.87-7.72,25.86-10.26V39.14c-14,5.18-38.64,15.36-55.43,24.49C264.39,64.18,267.33,68.3,267.66,68.81Z"/><path class="cls-1" d="M75.2,67.9c-7.93,9.4-12.11,17-19,33.91,1.52-.15,3-.23,4.57-.23.91,0,1.64,0,2.81.06l.84-1.8c3.89-8.35,9.13-19.6,16.46-28.27l2.53-3C91,59.72,95.64,54.48,98.57,42.44c1-4.28,1.86-8.11,4.73-10.87A13.09,13.09,0,0,1,112.48,28a18.88,18.88,0,0,1,7.94,2,13.44,13.44,0,0,0,6.71,1.4c1,0,1.73-.06,2.41-.11l-3.94,5.3L131,40.38c-6.71,2-10.26,8.46-11.44,11.44a4.28,4.28,0,0,0-.34,1.41.82.82,0,0,0,.75.89.38.38,0,0,0,.15,0c.74,0,1.3-.55,2.26-1.68,3.27-3.95,5.87-6.65,17.91-10.42l-8.51-6.43,6.42-9.4h-6c-3.82,0-6.36-.06-9.69-1.57-4.51-2.09-6.82-3-10.82-3a18.86,18.86,0,0,0-13,5.12c-4.22,3.89-5.53,9.08-7,14.76-1.17,4.4-2.59,9.24-5.73,13.69C83.14,59,81.24,60.81,75.2,67.9Z"/><path class="cls-1" d="M26.42,46.78c-13.8,0-19.65,6.65-19.65,11.1A11.65,11.65,0,0,0,0,68.35c0,8.4,6.14,14.37,14.25,14.37a12.67,12.67,0,0,0,7.38-2.53A15.51,15.51,0,0,0,26.7,81,13.13,13.13,0,0,0,38,75.17a9.43,9.43,0,0,0,1.3.06c4.95,0,9.24-3.27,11.48-7.55a5.69,5.69,0,0,0,.79-2.53c0-.62-.28-1.13-.9-1.13-.79,0-.91.74-2.31,2-3.16,2.87-8,4-13,4C33,73.54,30,75.41,26.54,75.41a11.07,11.07,0,0,1-6.53-2A7.44,7.44,0,0,1,14.38,76,7.28,7.28,0,0,1,6.78,69c0-.23,0-.45,0-.68a7.62,7.62,0,0,1,4.84-7C12.11,55.75,18.08,52,25.53,52a26,26,0,0,1,2.93.17c1.13-1.8,3.83-3.71,7.66-4.22A6.79,6.79,0,0,0,38,47.47a1.35,1.35,0,0,0,.44-1.87,1.32,1.32,0,0,0-.44-.44,7,7,0,0,0-1.86-.5,13,13,0,0,1-9.92-8.22A14.59,14.59,0,0,1,11.52,22h0v-.52a7.47,7.47,0,0,1-4.73-7,7.51,7.51,0,0,1,7.42-7.6h.12a7.72,7.72,0,0,1,6.15,3.09,14.07,14.07,0,0,1,3.82-.45c6.3,0,13.07,4,14.36,11.77,8.11.74,10,7.61,10.54,10.48.27,1.47.5,2.71,1.47,2.71s1.24-1.13,1.58-2.65a11.7,11.7,0,0,1,3.83-7c0-7.39,5.52-13.7,13.35-13.7A7.59,7.59,0,0,1,83.9,14.3a7.43,7.43,0,0,1-3,6.08,15.09,15.09,0,0,1,.67,4c0,4.74-2.82,8.05-8,9.8a14.4,14.4,0,0,1-3.94,7.38c-3.38,3.27-6.81,3.27-6.81,4.62,0,.73.49,1.19,1.91,1.19,6.26,0,12.39-3.5,13.12-9.3a14.45,14.45,0,0,0,9.58-12.84,7.09,7.09,0,0,0-.62-3.33,11.22,11.22,0,0,0,3.56-8.27A13.81,13.81,0,0,0,65.11,6.09C59,6.09,51,12.93,51,22.68h-.85c-.56-3.38-4.06-5.63-7-5.81C40.84,9.78,35.49,3.7,26.7,3.7a24.58,24.58,0,0,0-3.32.22A13.26,13.26,0,0,0,13.92.09,13.87,13.87,0,0,0,0,13.92V14c0,4.85,2.2,8.16,6.37,11.09l-.06.9c0,6.19,6.75,15.88,16.78,15.88,0,1.58,2,3.72,4.17,4.11v.79h-.85Z"/><path class="cls-1" d="M177.94,293l-12.78-3.27c-5.3-1.35-7.78-2.32-7.78-5.57s2.83-5.7,9.35-5.7c3.83,0,7.33.85,9.58,3.22,1.86,2,1.52,3,3,3.77a7.7,7.7,0,0,0,3.49.45h6.37a2.8,2.8,0,0,0,2.3-.79,3.69,3.69,0,0,0,.73-2.59c0-2.94-1.91-6.71-5.29-9.58-4.51-3.89-11.61-6.47-20.17-6.47-15.42,0-25.56,7.32-25.56,19a14.5,14.5,0,0,0,4,10.19c2.87,3.1,7,5.25,12.95,6.76l12.9,3.26c3.55.9,6.71,2,6.71,5.06,0,4.79-5.07,6.42-10.49,6.42a17.44,17.44,0,0,1-7.65-1.63,9.42,9.42,0,0,1-3.89-3.43c-.84-1.3-1.13-2.25-2.42-3a6,6,0,0,0-3-.51h-7a3.17,3.17,0,0,0-2.75,1.07,3.86,3.86,0,0,0-.68,2.42,13.32,13.32,0,0,0,2.65,7.61c4.28,5.73,13.23,10.36,24.66,10.36,11.27,0,26.86-4.68,26.86-19.77a15.83,15.83,0,0,0-3.2-9.92C188.13,297,184.36,294.68,177.94,293Z"/><path class="cls-1" d="M49.29,47.57A142.09,142.09,0,0,1,62,71.46a52.69,52.69,0,0,1,4.39-5.92A92.39,92.39,0,0,0,51.88,45.09Z"/><path class="cls-1" d="M188.47,111.84c-3.38,1.47-11.15,4.27-18.86,4.27a78.4,78.4,0,0,1-10.6-.79,102.19,102.19,0,0,0-12.1-1.06c-5.92,0-13.25.56-20.34,5.57l3.1,4.06c4.84-2.3,12.68-3.43,16.56-3.43a81.41,81.41,0,0,1,10.58.84,97.67,97.67,0,0,0,13,1.07c10.59,0,21-5.63,22.59-6.65A36,36,0,0,1,188.47,111.84Z"/><path class="cls-1" d="M119.75,119.56l-3.26-4.23C103.87,120.18,89.85,128,89.85,136c0,4.56,3.38,8.16,11,8.16,11.16,0,23-5.63,32.57-10.87L132,131.45a2.74,2.74,0,0,0-2.54-1.47,5.16,5.16,0,0,0-2,.56c-8.17,4-17,8-25.24,8-4.74,0-5.92-1.45-5.92-3.5C96.32,129.3,112,122.65,119.75,119.56Z"/><path class="cls-1" d="M228.17,268.66H218V250.29a5.24,5.24,0,0,0-1.12-3.38,4.61,4.61,0,0,0-3.78-1.62h-6.36a4.61,4.61,0,0,0-3.77,1.62,5.25,5.25,0,0,0-1.13,3.38v18.37h-3.16a4.25,4.25,0,0,0-2.76.89,3.67,3.67,0,0,0-1.07,2.93v3.88a3.61,3.61,0,0,0,1.07,2.92,4.12,4.12,0,0,0,2.76.91h3.16v28.1c0,7.2,2,11.72,5.64,15.32,3.37,3.32,7.77,5.41,15.42,5.41h4.79a4.12,4.12,0,0,0,2.76-.91,3.68,3.68,0,0,0,1.17-2.93v-4.9a3.69,3.69,0,0,0-1.17-2.92,4.12,4.12,0,0,0-2.76-.91H227c-3,0-5.12-.79-6.54-2.14-1.69-1.58-2.54-4-2.54-7.16v-27h10.26a4.12,4.12,0,0,0,2.76-.91,3.66,3.66,0,0,0,1.06-2.92v-3.88a3.68,3.68,0,0,0-1.06-2.93A4.14,4.14,0,0,0,228.17,268.66Z"/><path class="cls-1" d="M313.8,257.89a4.08,4.08,0,0,0,2.75-.91,3.61,3.61,0,0,0,1.07-2.92v-5.24c0-2-.39-3.06-1.07-3.78A3.7,3.7,0,0,0,313.8,244a30.74,30.74,0,0,0-3.32.27l-45,4.45a3.24,3.24,0,0,0-2.36,1,3.16,3.16,0,0,0-.73,2.3v2.93a2.58,2.58,0,0,0,2.86,3h48.51Z"/><path class="cls-1" d="M58.53,203.64A25.64,25.64,0,0,1,46,206.87c-1.74,0-2.53.34-3.15,1a4.15,4.15,0,0,0-1,3.09v2h1.35c7.54,0,14.53-1.17,22.19-7.2l25-19.5C94,190.32,102.9,196,113.49,196c6,0,9.8-1.46,15.31-2.86a62.44,62.44,0,0,1,17.58-2h26.41c13.52,0,20.06-2.81,27.26-6.86,15.67-8.8,29-23.66,36.56-40.73-2-1.24-3.83-2.37-5.4-3.44-8.46,17.8-21.3,30.76-34.48,38.25-6.25,3.55-11.89,5.86-24,5.86h-26.3a75.29,75.29,0,0,0-19.93,2.41c-5,1.3-8.12,2.6-13.12,2.6-7.44,0-14.32-3.67-17.64-7.16l6.2-4.9L98.85,173C97,174.31,75,190.58,70.4,194.24l-.27-.16a30.14,30.14,0,0,0,.11-3.15c0-12.39-5.75-15.38-14.48-18.87l-5.92,3.5c12,4,15,7.21,15,16.17C64.72,198.69,62.2,201.51,58.53,203.64Z"/><path class="cls-1" d="M2.27,195C6.49,195,7,192.5,7,190c0-1.62,0-3.49,0-5.51,0-4.67.22-8.85,7.77-12.23,3-1.35,18-7.43,29.07-12.16,3.27-1.41,6.3-2.59,9.69-2.59,3.77,0,8.11,1.63,13.51,4.85A56.77,56.77,0,0,1,80.11,173l4.78-3.66A62.54,62.54,0,0,0,69.4,156.8c-5.69-3.37-10.76-5.35-15-5.35a18.56,18.56,0,0,0-4.68.67A17.37,17.37,0,0,1,45,153c-2.07,0-3.83-.5-6.36-3.43-1-1.07-7-8-8.33-10a9.75,9.75,0,0,1-1.75-5.13,6.4,6.4,0,0,1,.73-3.09c5.24,4.06,11.72,6.54,19.61,7.49l-1.08-5.35c-11.32-3-23.38-13-23.38-19.37a8.39,8.39,0,0,1,.84-3.51c4.39,4.06,14.7,8.3,20.27,8.3a20.17,20.17,0,0,0,7.89-2,19.15,19.15,0,0,1,7.5-1.79c7.21,0,16.11,3.49,23.94,6.81a4.31,4.31,0,0,0,1.46.29,3,3,0,0,0,2.82-1.76l1-1.85c-8.61-5-22.37-10.37-29.53-10.37A20,20,0,0,0,52.73,110c-2.54,1-4.73,2.08-7,2.08-5.69,0-20.27-5.63-20.27-11.1,0-6.42,23.2-8.9,25.74-8.9l2.31-5.24c-16.84,0-36.9,5.91-36.9,13.74,0,2.26,1.3,3.38,1.3,5.46,0,2.83-1.3,4.74-1.3,7.89,0,2.08,1.25,4.73,2.71,7s3.44,4,3.44,6c0,1.52-1,3.31-1,6.86,0,7.69,4.3,12.35,12.79,21.35l1.68,1.8c-7,2.71-20,8.34-23,9.63C2.65,170.92,0,176.28,0,184.73c0,3.27,0,7,.22,10.3Z"/><path class="cls-1" d="M73.23,19.58a.94.94,0,0,0-.94-.9c-.52,0-.79.34-1.3.74a58.37,58.37,0,0,0-6.08,6,44.14,44.14,0,0,0-7.26,12.16l3,1.86c2.09-3.11,8.79-13.69,12.22-19A1.73,1.73,0,0,0,73.23,19.58Z"/><path class="cls-1" d="M190.55,257a3.63,3.63,0,0,0,1.07-2.92v-5a3.64,3.64,0,0,0-1.07-2.93,4.08,4.08,0,0,0-2.75-.89H59.37a5.4,5.4,0,0,0-4.45,1.84A5.61,5.61,0,0,0,53.69,251v51.15H53.4s-28-49.9-29.35-52.2a9.69,9.69,0,0,0-3.43-3.62,10.49,10.49,0,0,0-5.69-1.21H5.7a5.39,5.39,0,0,0-4.45,1.85A5.59,5.59,0,0,0,0,250.79v72.49a5.58,5.58,0,0,0,1.24,3.89A5.4,5.4,0,0,0,5.7,329h5.24a5.42,5.42,0,0,0,4.45-1.86,5.53,5.53,0,0,0,1.23-3.89V270.91h.29s29.1,51.48,30.25,53.4a9.43,9.43,0,0,0,8.34,4.78h9a5.4,5.4,0,0,0,4.44-1.86,5.49,5.49,0,0,0,1.24-3.89V257.9H187.81A4.18,4.18,0,0,0,190.55,257Z"/><path class="cls-1" d="M106.29,266.51c-19.55,0-30.53,15.27-30.53,31.37,0,17.19,11.77,32.28,30.63,32.28,9.41,0,18.64-3.55,23.94-9.8,2.32-2.71,4.18-6.48,4.18-8.79a2.79,2.79,0,0,0-.62-2,2.68,2.68,0,0,0-2.3-.91h-9.07a4.33,4.33,0,0,0-3.94,2c-2.65,3.89-6.49,5.92-12.12,5.92a14.06,14.06,0,0,1-14.3-13.47h39.21a5.08,5.08,0,0,0,3.82-1.24c1-.89,1.42-2.19,1.42-4.61a32.92,32.92,0,0,0-7.16-20.89C124.49,270.51,116.93,266.51,106.29,266.51Zm-14,24.67c.74-6.93,6-12.11,14.08-12.11s13.35,5.18,14.08,12.11Z"/><path class="cls-1" d="M20.12,65.15a.88.88,0,0,0,.86.9h0a4.14,4.14,0,0,0,1.46-.45l20.61-7-1-3.38c-8.39,1.41-14.48,3.55-21.4,9C20.28,64.53,20.12,64.76,20.12,65.15Z"/><path class="cls-1" d="M32.62,24.94a45.75,45.75,0,0,0-10.87-6.1L21,18.67a.85.85,0,0,0-.9.78v.07c0,.34.11.62.62,1.07C25.65,24.75,35.11,32.7,38,35.09l2.35-2.71A50.92,50.92,0,0,0,32.62,24.94Z"/></g></g></g></g></svg>